# xmcd CD database file
#
# Track frame offsets:
#	150
#	26755
#	45738
#	67698
#	87413
#	112665
#	133798
#	164340
#	199853
#	254878
#	273840
#
# Disc length: 3955 seconds
#
# Revision: 4
# Processed by: cddbd v1.5PL3 Copyright (c) Steve Scherf et al.
# Submitted via: CdAid (MTCDDB.DLL V2003.12.21)
#
DISCID=970f710b
DTITLE=John Coltrane - The Heavyweight Champion - Disc 3
DYEAR=1995
DGENRE=Jazz
TTITLE0=Like Sonny
TTITLE1=Harmonique
TTITLE2=My Shining Hour
TTITLE3=Naima
TTITLE4=Some Other Blues
TTITLE5=Fifth House
TTITLE6=Cherryco
TTITLE7=The Blessing
TTITLE8=Focus on Sanity
TTITLE9=The Invisible
TTITLE10=Bemsha Swing
EXTD=with John Coltrane, tenor sax (1-7, 9-11) and soprano sax (8,10);\nDon Ch
EXTD=erry, trumpet (7-11);\nWynton Kelly, piano (1-6);\nPaul Chambers, bass (1
EXTD=6);\nCharlie Haden, bass (7-8);\nPercy Heath, bass (9-11);\nJimmy Cobb, 
EXTD=drums (1-6);\nEd blackwell, drums (7-11) ID3G:   8 YEAR: 1995
EXTT0=
EXTT1=
EXTT2=
EXTT3=
EXTT4=
EXTT5=
EXTT6=
EXTT7=
EXTT8=
EXTT9=
EXTT10=
PLAYORDER=
